<?xml version="1.0" encoding="UTF-8"?>
<svg width="106px" height="104px" viewBox="0 0 106 104" version="1.1" xmlns="http://www.w3.org/2000/svg" xmlns:xlink="http://www.w3.org/1999/xlink">
    <!-- Generator: Sketch 53.2 (72643) - https://sketchapp.com -->
    <title>O</title>
    <desc>Created with Sketch.</desc>
    <g id="Page-1" stroke="none" stroke-width="1" fill="none" fill-rule="evenodd">
        <path d="M105.509875,54.1481742 C105.413272,57.3360851 104.954413,60.3790454 104.133284,63.2771462 C103.312156,66.1752471 102.321986,68.9525521 101.162746,71.6091446 C100.003505,74.265737 98.7235301,76.8015373 97.3227813,79.2166213 C95.9220326,81.6317054 94.6420572,83.9018503 93.4828169,86.0271243 C91.9371631,86.7999512 90.5605858,87.7901208 89.3530438,88.9976628 L85.6579837,92.692723 C84.40214,93.9485667 83.0980141,95.1560906 81.7455671,96.3153309 C80.39312,97.4745713 78.7991884,98.3922895 76.9637245,99.068513 C76.1908976,99.4549264 75.1765776,99.6481303 73.9207338,99.6481303 C72.6648901,99.6481303 71.4090653,99.7930331 70.1532216,100.082843 C69.2837913,100.372653 68.2211703,100.71076 66.9653265,101.097173 C65.7094828,101.483587 64.3812065,101.869995 62.9804578,102.256408 C61.579709,102.642821 60.1548308,102.980928 58.7057804,103.270738 C57.54654,103.463945 56.435618,103.560547 55.372981,103.560547 L54.2137465,103.560547 C53.3443162,103.463944 52.5232,103.222439 51.7503731,102.836025 C50.9775462,102.449612 50.2047309,102.159806 49.431904,101.966599 C47.4998367,101.676789 45.5194975,101.531886 43.4908269,101.531886 L41.1723578,101.531886 C40.4961343,101.62849 39.8199209,101.676791 39.1436973,101.676791 C37.0184234,101.676791 34.9414822,101.483587 32.9128116,101.097173 C31.946778,100.903967 31.0290598,100.517559 30.1596296,99.9379389 C29.5800094,99.5515255 29.0003979,99.3583216 28.4207777,99.3583216 C27.9377609,99.3583216 27.5030523,99.4549235 27.1166389,99.6481303 C25.3777783,98.1990798 23.494041,96.846653 21.4653704,95.5908093 C19.4366998,94.3349656 17.4563606,93.0549903 15.5242934,91.7508449 C13.5922261,90.4466995 11.7084888,89.0459718 9.87302493,87.5486196 C8.03756105,86.0512675 6.49193044,84.2399817 5.23608673,82.1147077 C3.40062285,79.1200035 2.09649702,75.8355384 1.32367012,72.261214 C0.550843222,68.6868896 0.116134612,64.919415 0.01953125,60.9586771 L0.01953125,58.9300167 C0.01953125,55.6455024 0.212735076,52.3127364 0.599148525,48.9316187 C0.985561974,44.7776741 1.42027058,40.6720928 1.90328739,36.6147516 C4.12516473,32.5574104 6.29870777,28.4276786 8.42398174,24.2254323 C10.5492557,20.0231861 13.0609055,16.231561 15.9590063,12.8504433 C18.4706937,11.2081861 21.006494,9.71085648 23.5664831,8.35840941 C26.1264722,7.00596234 29.096981,5.6052346 32.4780987,4.15618416 C34.9897861,3.09354718 37.815392,2.24828044 40.9550013,1.62035858 C44.0946106,0.99243673 47.3549252,0.581878599 50.7360428,0.388671875 L53.7790335,0.388671875 C56.1941176,0.388671875 58.6091654,0.485273788 61.0242495,0.678480513 C64.5019705,1.06489396 67.8830375,1.74110735 71.1675518,2.70714098 C72.4233955,3.09355443 73.9931766,3.69731638 75.8769422,4.51844496 C77.7607077,5.33957354 79.644445,6.20899076 81.5282106,7.1267227 C83.4119761,8.04445464 85.1991115,9.01047377 86.8896704,10.0248091 C88.5802292,11.0391444 89.9568065,11.981013 91.0194435,12.8504433 C92.4684939,14.0096836 93.6518673,15.289659 94.5695993,16.6904077 C95.4873312,18.0911565 96.3567484,19.5160347 97.177877,20.9650851 C97.9990056,22.4141356 98.7718209,23.8631643 99.4963461,25.3122147 C100.220871,26.7612651 101.114439,28.1136919 102.177076,29.3695356 C102.273679,31.591413 102.539335,33.7166551 102.97405,35.7453257 C103.408765,37.7739963 103.819323,39.8026365 104.205736,41.8313071 C104.59215,43.8599777 104.930257,45.8886178 105.220067,47.9172884 C105.413273,49.4629422 105.509875,51.0085729 105.509875,52.5542267 L105.509875,54.1481742 Z M97.3952335,46.7580539 C96.3325965,36.7113042 93.3379372,28.9348502 88.4111657,23.4284586 C83.4843943,17.9220669 76.6256584,13.7681847 67.8347525,10.9666871 C66.0958919,10.4836703 64.2363051,9.92820934 62.2559362,9.30028748 C60.2755673,8.67236563 58.5608833,8.2618075 57.1118329,8.06860077 L56.8220242,8.06860077 C56.3390074,8.06860077 55.9042988,8.21350364 55.5178854,8.50331373 C55.0348685,8.88972718 54.4552571,9.082931 53.7790335,9.082931 C53.0062066,9.082931 52.3541437,8.91387766 51.8228252,8.57576589 C51.2915067,8.23765412 50.7843467,8.06860077 50.3013299,8.06860077 C41.2206138,8.45501422 33.2751065,11.1357173 26.4645694,16.1107905 C19.6540324,21.0858636 14.7031843,27.4374394 11.6118768,35.1657084 C10.5492398,39.5128597 9.6315216,43.7150429 8.8586947,47.7723841 C8.0858678,51.4433119 7.69946015,55.0658836 7.69946015,58.640208 L7.69946015,59.9443469 C7.79606351,66.2235655 9.24509221,71.6332726 12.0465897,76.1736306 C14.8480872,80.7139886 18.4465085,84.4090118 22.8419615,87.258811 C27.2374144,90.1086102 32.1882625,92.1614008 37.6946541,93.4172446 C42.0418054,94.3832782 46.4371925,94.8662877 50.8809472,94.8662877 C52.0401875,94.8662877 53.2477114,94.8179868 54.5035551,94.7213834 C60.2031535,94.4315733 65.6853121,93.3448018 70.9501953,91.4610363 C76.2150786,89.5772707 80.8278199,86.9448686 84.7885578,83.5637509 C86.5274183,81.4384769 88.2179518,78.9992786 89.8602089,76.2460828 C91.5024661,73.492887 92.9514948,70.5223781 94.2073385,67.3344672 C95.4631822,64.1465562 96.4292013,60.8137902 97.1054249,57.3360692 C97.4918383,55.3073986 97.6850421,53.1821565 97.6850421,50.9602791 C97.6850421,49.5112287 97.5884402,48.110501 97.3952335,46.7580539 Z" id="O" fill="#061750" fill-rule="nonzero"></path>
    </g>
</svg>