<?xml version="1.0" encoding="UTF-8"?>
<svg width="69px" height="100px" viewBox="0 0 69 100" version="1.1" xmlns="http://www.w3.org/2000/svg" xmlns:xlink="http://www.w3.org/1999/xlink">
    <!-- Generator: Sketch 53.2 (72643) - https://sketchapp.com -->
    <title>padlock (3)</title>
    <desc>Created with Sketch.</desc>
    <g id="Page-1" stroke="none" stroke-width="1" fill="none" fill-rule="evenodd">
        <g id="padlock-(3)" fill="#FFFFFF" fill-rule="nonzero">
            <path d="M64.9739474,43.0763158 L64.9739474,30.5273684 C64.9739474,13.6944737 51.2794737,0 34.4465789,0 C17.6136842,0 3.91921053,13.6944737 3.91921053,30.5273684 L3.91921053,42.9578947 C2.02105263,43.6821053 0.143157895,45.3157895 0.143157895,48.5521053 L0.143157895,65.6421053 C0.143157895,84.5571053 15.5318421,99.9457895 34.4468421,99.9457895 C53.3618421,99.9457895 68.75,84.5571053 68.75,65.6421053 L68.75,48.5521053 C68.75,45.4813158 66.9181579,43.8534211 64.9739474,43.0763158 Z M40.9665789,79.7978947 C41.0739474,80.3668421 40.6881579,80.8323684 40.1092105,80.8323684 L28.9131579,80.8323684 C28.3342105,80.8323684 27.9484211,80.3668421 28.0557895,79.7978947 L29.8489474,70.2942105 C28.4802632,69.0460526 27.6213158,67.2484211 27.6213158,65.2502632 C27.6213158,61.4807895 30.6771053,58.425 34.4465789,58.425 C38.2160526,58.425 41.2718421,61.4807895 41.2718421,65.2502632 C41.2718421,67.1942105 40.4578947,68.9468421 39.1536842,70.19 L40.9665789,79.7978947 Z M54.4476316,42.4671053 L14.4455263,42.4671053 L14.4455263,30.5273684 C14.4455263,19.4989474 23.4178947,10.5263158 34.4465789,10.5263158 C45.475,10.5263158 54.4476316,19.4989474 54.4476316,30.5273684 L54.4476316,42.4671053 Z" id="Shape"></path>
        </g>
    </g>
</svg>