<?xml version="1.0" encoding="UTF-8"?>
<svg width="69px" height="100px" viewBox="0 0 69 100" version="1.1" xmlns="http://www.w3.org/2000/svg" xmlns:xlink="http://www.w3.org/1999/xlink">
    <!-- Generator: Sketch 53.2 (72643) - https://sketchapp.com -->
    <title>open-lock copy 2</title>
    <desc>Created with Sketch.</desc>
    <g id="Page-1" stroke="none" stroke-width="1" fill="none" fill-rule="evenodd">
        <g id="open-lock-copy-2" fill="#FFE000" fill-rule="nonzero">
            <path d="M61.8702632,42.4671053 L14.4455263,42.4671053 L14.4455263,30.5273684 C14.4455263,19.4989474 23.4181579,10.5263158 34.4465789,10.5263158 C44.2565789,10.5263158 52.5521053,17.5339474 54.1710526,27.1884211 C54.6518421,30.0552632 57.3668421,31.9878947 60.2321053,31.5086842 C63.0989474,31.0278947 65.0331579,28.3142105 64.5523684,25.4476316 C63.3718421,18.4078947 59.7186842,11.9657895 54.2657895,7.30789474 C48.7492105,2.59526316 41.7105263,0 34.4465789,0 C17.6136842,0 3.91921053,13.6944737 3.91921053,30.5273684 L3.91921053,42.9578947 C2.02105263,43.6818421 0.142894737,45.3157895 0.142894737,48.5521053 L0.142894737,65.6421053 C0.142894737,84.5571053 15.5315789,99.9457895 34.4465789,99.9457895 C53.3615789,99.9457895 68.75,84.5571053 68.75,65.6421053 L68.75,48.5521053 C68.75,43.7389474 64.25,42.4671053 61.8702632,42.4671053 Z M40.9665789,79.7978947 C41.0739474,80.3668421 40.6881579,80.8323684 40.1092105,80.8323684 L28.9131579,80.8323684 C28.3342105,80.8323684 27.9484211,80.3668421 28.0557895,79.7978947 L29.8489474,70.2942105 C28.4802632,69.0460526 27.6213158,67.2484211 27.6213158,65.2502632 C27.6213158,61.4807895 30.6771053,58.425 34.4465789,58.425 C38.2160526,58.425 41.2718421,61.4807895 41.2718421,65.2502632 C41.2718421,67.1942105 40.4578947,68.9468421 39.1536842,70.19 L40.9665789,79.7978947 Z" id="Shape"></path>
        </g>
    </g>
</svg>