<?xml version="1.0" encoding="UTF-8"?>
<svg width="101px" height="120px" viewBox="0 0 101 120" version="1.1" xmlns="http://www.w3.org/2000/svg" xmlns:xlink="http://www.w3.org/1999/xlink">
    <!-- Generator: Sketch 53.2 (72643) - https://sketchapp.com -->
    <title>X</title>
    <desc>Created with Sketch.</desc>
    <g id="Page-1" stroke="none" stroke-width="1" fill="none" fill-rule="evenodd">
        <path d="M44.0253367,92.936003 C38.9527234,98.176306 33.5521957,103.124645 27.8248761,107.780392 C27.5297135,108.583043 27.1707381,109.342262 26.743338,110.054595 L25.6479219,111.880289 L23.7214668,112.786856 C22.8668335,113.189036 22.1741905,113.646482 21.6199317,114.1564 C20.177684,115.483268 18.5965956,116.662017 16.8833735,117.68995 L14.2067363,119.295933 L11.2233022,118.377953 C9.81014477,117.943135 8.4840559,117.445694 7.24465756,116.882331 C4.64793774,115.702004 2.69241753,113.632891 1.5859897,110.977464 L0.714831008,108.886683 L1.23360799,106.681881 C1.88483255,103.914177 3.20402174,101.506417 5.17708856,99.6230346 C6.33644449,98.5163767 7.55109712,97.4865811 8.82018442,96.5347656 C9.77052123,95.822013 10.7236694,95.0674295 11.6795186,94.2708885 C11.8256144,94.149142 11.9214807,94.01587 12.0169413,93.7772184 L13.0053587,91.3061749 L15.385783,90.1159628 C16.0960909,89.7608088 16.7006261,89.3620192 17.2124234,88.9200124 C18.0832148,88.1679653 18.956906,87.3736918 19.8333386,86.5370971 C20.957152,85.4643661 22.1116462,84.4638415 23.2968469,83.5362931 C24.3191653,82.7362178 25.4387167,82.0550591 26.6467967,81.4908555 C27.8056956,79.8727236 29.0559279,78.3203549 30.3966748,76.8346624 C32.0493537,75.0033155 33.7027606,73.2158502 35.3569776,71.472216 C36.8445801,69.9042026 38.2721648,68.2755468 39.6400172,66.5858468 C40.0211069,66.1150889 40.3926135,65.6291803 40.7545261,65.1279948 C35.3665859,57.3635339 29.788697,49.8395275 24.0207098,42.555595 C17.0623361,33.768418 10.50798,24.5165531 4.35758657,14.8007142 L2.53193446,11.916713 L3.67994416,8.70228585 C4.45431148,6.53405736 5.61007051,4.64147835 7.15442132,3.09712753 C9.1639181,1.08763075 11.8201493,0.130859375 14.7213563,0.130859375 L16.4868972,0.130859375 L17.4295604,0.400191742 C19.6763584,1.04213403 21.3954061,2.43273346 23.2056853,4.57215431 C24.3347242,5.90647304 25.4655057,7.41392903 26.6043011,9.09736568 C27.6540024,10.649098 28.6377857,12.159104 29.5557819,13.627898 C30.3537342,14.9046217 30.9446977,15.8112326 31.243837,16.2304544 C34.0577674,20.0996086 36.5013039,23.5117631 38.575982,26.4692831 C40.4102794,29.0841325 42.552116,31.6580771 45.0048972,34.1899804 L45.6582232,34.8643813 L46.110727,35.6871156 C46.8626573,37.0542616 47.7093936,38.3075424 48.6522117,39.452393 C49.7783836,40.8198874 50.944384,42.146717 52.1503823,43.4331152 C52.9758944,44.3136614 53.778076,45.2103929 54.5568615,46.1232644 C55.284607,45.0011474 56.0285962,43.9078588 56.7888939,42.843442 C57.7189633,41.5413448 58.8062197,40.3841077 60.0380944,39.3825621 C61.2090321,36.6223769 62.5288894,34.010077 63.9984541,31.5475631 C65.5816008,28.8947227 67.1436986,26.1984977 68.6847807,23.4587963 C70.131066,20.8876223 71.4595891,18.1902623 72.6701536,15.3656118 C73.7521035,12.841062 74.5575281,10.0208191 75.0783176,6.89608209 L75.7123324,3.09199312 L79.266676,1.59542737 C81.7265967,0.5596713 83.9266997,0 86.0397157,0 C87.1129286,0 88.1592533,0.153385491 89.1693257,0.490076289 C92.6078488,1.63625066 95.0083954,4.40955887 95.642517,7.92634159 C95.8256138,8.74104506 95.9186219,9.56933066 95.9186219,10.4023438 C95.9186219,12.0287305 95.6544943,13.750197 95.1499182,15.6398932 L95.0999684,15.8161227 C94.4932367,17.8385619 93.7399645,19.872608 92.841802,21.9184226 C92.0103077,23.8123818 91.1539271,25.6408499 90.2723857,27.4039327 C89.4068145,29.1350751 88.6959739,30.5105457 88.0770149,31.6436195 C87.1193651,33.3379231 86.3601881,34.9462158 85.7955811,36.4635969 C84.9725632,38.6754575 84.1226927,40.5594444 83.2189802,42.1409413 C82.4601141,43.4689569 81.4617587,44.6515991 80.2573647,45.6839368 C80.2465566,45.6932009 80.2359887,45.7027118 80.2256109,45.71255 C79.9970385,47.1827941 79.5473262,48.526338 78.8049143,49.7613953 L78.6999099,49.9297121 C77.546734,51.7118929 76.2023791,53.4701924 74.66944,55.2075233 C73.3866614,56.6613391 72.125549,58.1148242 70.8860611,59.5680169 C69.6791913,60.9829677 68.5371811,62.3741349 67.4600324,63.7412853 C67.4519434,63.751552 67.4438717,63.7618135 67.4358171,63.7720698 C70.9233983,69.3879034 74.755357,74.5709957 78.9322234,79.3251525 C84.0133134,85.108507 89.6555655,90.4406794 95.8637992,95.3244899 L96.0376572,95.4612582 L96.4730161,95.8589874 L96.6249015,96.0198071 C99.2478166,98.7970114 100.760419,101.803934 100.760419,105.144531 C100.760419,106.05837 100.630023,106.935565 100.381006,107.897307 L100.316346,108.147033 L100.230492,108.390288 C99.0265247,111.801528 96.5663724,114.365421 93.2085173,115.624617 C91.7525662,116.170598 90.2754179,116.462891 88.7877625,116.462891 C86.8548055,116.462891 84.9555846,116.00596 83.1968696,115.146219 C80.2228315,113.781028 78.1787624,111.344395 77.0896896,108.231614 C74.8396852,106.375131 72.7183189,104.413275 70.7267095,102.34651 C68.2952169,99.8232635 65.9557349,97.2085505 63.7084039,94.5025805 C61.5984299,91.9619995 59.4669904,89.4430256 57.3140178,86.9455774 C56.0805266,85.5147276 54.8017568,84.113152 53.4775621,82.7407639 C50.3824987,86.2251564 47.2317633,89.6235788 44.0253367,92.936003 Z" id="X" fill="#FFFFFF" fill-rule="nonzero"></path>
    </g>
</svg>